<svg version="1.1" xmlns="http://www.w3.org/2000/svg" xmlns:xlink="http://www.w3.org/1999/xlink" viewBox="0 0 60 60" xml:space="preserve" data-animoptions="{'duration':'2', 'repeat':'0', 'repeatDelay':'0.7'}" preserveAspectRatio="xMinYMin meet" style="left: 0.5px; top: 0px;"><g class="lievo-setrotation"><g class="lievo-setsharp"><g class="lievo-setflip"><g class="lievo-main">
    <g class="lievo-filledicon lievo-lineicon">
      <defs>
        <mask id="livicon_envelope_put_filled_37">
          <polygon class="lievo-donotdraw lievo-nohovercolor lievo-savefill" fill="#ffffff" stroke="none" points="56,12 38,30 22,30 4,12 4,-12 56,-12"></polygon>
        </mask>
      </defs>
      <g data-svg-origin="7 -40" style="transform: matrix(1, 0, 0, 1, 0, 0);">
        <path fill="#9ee5ff" stroke="#29C5FF" stroke-width="0" d="M53,43c0,1.1-0.9,2-2,2H9c-1.1,0-2-0.9-2-2V17c0-1.1,0.9-2,2-2h42c1.1,0,2,0.9,2,2V43z" style="stroke: rgb(41, 197, 255); fill: rgb(158, 229, 255);"></path>
        
        <g>
          <line class="lievo-savelinecap lievo-altstroke" fill="none" stroke="#29C5FF" stroke-width="2" stroke-linecap="round" stroke-linejoin="round" stroke-miterlimit="10" x1="22" y1="30" x2="7.59" y2="44.41" style="stroke: rgb(41, 197, 255);"></line>
          <line class="lievo-savelinecap lievo-altstroke" fill="none" stroke="#29C5FF" stroke-width="2" stroke-linecap="round" stroke-linejoin="round" stroke-miterlimit="10" x1="52.41" y1="44.41" x2="38" y2="30" style="stroke: rgb(41, 197, 255);"></line>
        </g>
        <g opacity="0" style="opacity: 0;">
          <line class="lievo-donotdraw lievo-savelinecap lievo-altstroke" fill="none" stroke="#29C5FF" stroke-width="2" stroke-linecap="round" stroke-linejoin="round" stroke-miterlimit="10" x1="22" y1="30" x2="7.59" y2="15.59" style="stroke: rgb(41, 197, 255);"></line>
          <line class="lievo-donotdraw lievo-savelinecap lievo-altstroke" fill="none" stroke="#29C5FF" stroke-width="2" stroke-linecap="round" stroke-linejoin="round" stroke-miterlimit="10" x1="38" y1="30" x2="52.41" y2="15.59" style="stroke: rgb(41, 197, 255);"></line>
        </g>
        
        <line class="lievo-donotdraw lievo-savelinecap lievo-altstroke" fill="none" stroke="#29C5FF" stroke-width="2" stroke-linecap="round" stroke-linejoin="round" stroke-miterlimit="10" x1="22" y1="30" x2="38" y2="30" opacity="0" style="opacity: 0; stroke: rgb(41, 197, 255);"></line>

        <path class="lievo-savelinecap" fill="#9ee5ff" stroke="#29C5FF" stroke-width="2" stroke-linecap="round" stroke-linejoin="round" stroke-miterlimit="10" d="M30,15h21c0.81,0,1.41,0.59,1.41,0.59L33.54,34.46c-1.95,1.95-5.12,1.95-7.07,0L7.59,15.59c0,0,0.59-0.59,1.41-0.59H30z" data-original="M30,15h21c0.81,0,1.41,0.59,1.41,0.59L33.54,34.46c-1.95,1.95-5.12,1.95-7.07,0L7.59,15.59c0,0,0.59-0.59,1.41-0.59H30z" style="stroke: rgb(41, 197, 255); fill: rgb(158, 229, 255);"></path>
                
        <path fill="none" stroke="#29C5FF" stroke-width="2" d="M30,15h21c1.1,0,2,0.9,2,2v26c0,1.1-0.9,2-2,2H9c-1.1,0-2-0.9-2-2V17c0-1.1,0.9-2,2-2H30z" style="stroke: rgb(41, 197, 255);"></path>

        <g mask="url(#livicon_envelope_put_filled_37)">
          <g opacity="0" style="opacity: 0;">
            <rect class="lievo-donotdraw lievo-nohovercolor lievo-savefill" fill="#ECF0F1" x="10" y="-40" width="40" height="26" data-svg-origin="10 -40" style="transform: matrix(1, 0, 0, 1, 0, 0);"></rect>
          </g>
        </g>
      </g>
    </g>
  <rect x="-19" y="-19" width="4" height="4" fill="none" stroke="#ffffff" class="lievo-checkshift lievo-donotdraw lievo-nohoverstroke lievo-nohovercolor" style="stroke-width: 2; stroke-linecap: butt; stroke-linejoin: round; opacity: 0;"></rect></g></g></g></g>
<desc>LivIcons Evolution</desc>
</svg>